<?xml version="1.0" encoding="utf-8"?>
<!-- Generator: Adobe Illustrator 16.0.0, SVG Export Plug-In . SVG Version: 6.00 Build 0)  -->
<!DOCTYPE svg PUBLIC "-//W3C//DTD SVG 1.1//EN" "http://www.w3.org/Graphics/SVG/1.1/DTD/svg11.dtd">
<svg version="1.1" id="圖層_1" xmlns="http://www.w3.org/2000/svg" xmlns:xlink="http://www.w3.org/1999/xlink" x="0px" y="0px"
	 width="388.784px" height="108.933px" viewBox="0 0 388.784 108.933" enable-background="new 0 0 388.784 108.933"
	 xml:space="preserve">
<path fill="#FFFFFF" d="M131.701,6.425h4.51v22.551c0,3.189-0.602,6.151-1.804,8.885c-1.203,2.737-2.843,5.112-4.917,7.127
	s-4.464,3.607-7.17,4.78c-2.706,1.172-5.593,1.759-8.662,1.759c-2.286,0-4.45-0.315-6.491-0.946
	c-2.045-0.631-3.941-1.518-5.682-2.661c-1.748-1.141-3.31-2.482-4.694-4.015c-1.384-1.533-2.524-3.203-3.426-5.005
	c-0.902,1.802-2.063,3.472-3.474,5.005c-1.414,1.533-3.009,2.874-4.783,4.015c-1.771,1.143-3.682,2.03-5.727,2.661
	c-2.042,0.631-4.149,0.946-6.313,0.946c-3.188,0-6.149-0.586-8.885-1.759c-2.738-1.173-5.113-2.765-7.128-4.78
	s-3.607-4.39-4.78-7.127c-1.173-2.734-1.759-5.695-1.759-8.885V6.425h4.512v22.551c0,2.466,0.479,4.796,1.44,6.992
	s2.256,4.103,3.881,5.727c1.622,1.625,3.53,2.918,5.727,3.88c2.196,0.961,4.524,1.443,6.992,1.443c2.464,0,4.795-0.482,6.989-1.443
	c2.196-0.961,4.104-2.255,5.729-3.88c1.622-1.624,2.917-3.531,3.878-5.727c0.962-2.195,1.444-4.526,1.444-6.992V6.425h4.509v22.551
	c0,2.466,0.482,4.796,1.443,6.992c0.961,2.195,2.256,4.103,3.878,5.727c1.625,1.625,3.533,2.918,5.73,3.88
	c2.193,0.961,4.524,1.443,6.988,1.443c2.468,0,4.795-0.482,6.995-1.443c2.194-0.961,4.102-2.255,5.727-3.88
	c1.625-1.624,2.917-3.531,3.878-5.727s1.443-4.526,1.443-6.992V6.425z M184.967,20.136c1.172,2.767,1.759,5.713,1.759,8.84v22.551
	h-4.512v-9.02c-2.045,2.707-4.661,4.887-7.846,6.541c-3.188,1.652-6.586,2.479-10.194,2.479c-3.188,0-6.149-0.586-8.885-1.759
	c-2.738-1.173-5.114-2.765-7.125-4.78c-2.015-2.015-3.607-4.39-4.783-7.127c-1.173-2.734-1.756-5.695-1.756-8.885
	c0-3.126,0.583-6.073,1.756-8.84c1.176-2.764,2.768-5.155,4.783-7.17c2.012-2.015,4.387-3.609,7.125-4.782
	c2.735-1.172,5.697-1.759,8.885-1.759c3.128,0,6.072,0.586,8.84,1.759c2.765,1.173,5.155,2.767,7.17,4.782
	C182.199,14.98,183.794,17.372,184.967,20.136z M182.214,28.976c0-2.466-0.482-4.795-1.441-6.99
	c-0.964-2.195-2.256-4.104-3.881-5.728c-1.622-1.624-3.533-2.916-5.727-3.878c-2.197-0.961-4.524-1.443-6.992-1.443
	c-2.468,0-4.798,0.482-6.989,1.443c-2.197,0.963-4.107,2.255-5.729,3.878c-1.625,1.624-2.92,3.533-3.878,5.728
	c-0.964,2.195-1.444,4.524-1.444,6.99s0.479,4.796,1.444,6.992c0.958,2.195,2.253,4.103,3.878,5.727
	c1.622,1.625,3.533,2.918,5.729,3.88c2.19,0.961,4.521,1.443,6.989,1.443c2.467,0,4.795-0.482,6.992-1.443
	c2.193-0.961,4.104-2.255,5.727-3.88c1.625-1.624,2.917-3.531,3.881-5.727C181.731,33.772,182.214,31.441,182.214,28.976z
	 M235.435,20.136c1.2,2.767,1.804,5.713,1.804,8.84c0,3.189-0.604,6.151-1.804,8.885c-1.202,2.737-2.839,5.112-4.917,7.127
	c-2.074,2.015-4.464,3.607-7.17,4.78c-2.709,1.172-5.593,1.759-8.662,1.759c-3.848,0-7.307-0.827-10.373-2.479
	c-3.066-1.654-5.623-3.834-7.667-6.541v17.137h-4.509V28.976c0-3.126,0.586-6.073,1.759-8.84c1.173-2.764,2.766-5.155,4.78-7.17
	c2.015-2.015,4.388-3.609,7.126-4.782c2.735-1.172,5.697-1.759,8.884-1.759c3.069,0,5.953,0.586,8.662,1.759
	c2.706,1.173,5.096,2.767,7.17,4.782C232.596,14.98,234.233,17.372,235.435,20.136z M232.73,28.976c0-2.466-0.482-4.795-1.444-6.99
	c-0.961-2.195-2.256-4.104-3.878-5.728c-1.625-1.624-3.536-2.916-5.729-3.878c-2.193-0.961-4.524-1.443-6.992-1.443
	s-4.795,0.482-6.992,1.443c-2.193,0.963-4.102,2.255-5.724,3.878c-1.625,1.624-2.92,3.533-3.881,5.728
	c-0.962,2.195-1.444,4.524-1.444,6.99s0.482,4.796,1.444,6.992c0.961,2.195,2.256,4.103,3.881,5.727
	c1.622,1.625,3.53,2.918,5.724,3.88c2.197,0.961,4.524,1.443,6.992,1.443s4.798-0.482,6.992-1.443s4.104-2.255,5.729-3.88
	c1.622-1.624,2.917-3.531,3.878-5.727S232.73,31.441,232.73,28.976z M285.948,20.136c1.203,2.767,1.807,5.713,1.807,8.84
	c0,3.189-0.604,6.151-1.807,8.885c-1.203,2.737-2.839,5.112-4.914,7.127s-4.465,3.607-7.173,4.78
	c-2.703,1.172-5.593,1.759-8.658,1.759c-3.849,0-7.307-0.827-10.376-2.479c-3.063-1.654-5.623-3.834-7.664-6.541v17.137h-4.513
	V28.976c0-3.126,0.586-6.073,1.762-8.84c1.17-2.764,2.762-5.155,4.777-7.17s4.393-3.609,7.128-4.782
	c2.735-1.172,5.697-1.759,8.885-1.759c3.065,0,5.956,0.586,8.658,1.759c2.708,1.173,5.099,2.767,7.173,4.782
	S284.746,17.372,285.948,20.136z M283.243,28.976c0-2.466-0.482-4.795-1.443-6.99c-0.962-2.195-2.256-4.104-3.875-5.728
	c-1.625-1.624-3.536-2.916-5.73-3.878c-2.196-0.961-4.527-1.443-6.991-1.443c-2.468,0-4.795,0.482-6.992,1.443
	c-2.197,0.963-4.104,2.255-5.73,3.878c-1.622,1.624-2.914,3.533-3.875,5.728c-0.964,2.195-1.443,4.524-1.443,6.99
	s0.479,4.796,1.443,6.992c0.961,2.195,2.253,4.103,3.875,5.727c1.625,1.625,3.533,2.918,5.73,3.88s4.524,1.443,6.992,1.443
	c2.464,0,4.795-0.482,6.991-1.443c2.194-0.961,4.104-2.255,5.73-3.88c1.619-1.624,2.914-3.531,3.875-5.727
	C282.76,33.772,283.243,31.441,283.243,28.976z M336.508,20.136c1.173,2.767,1.757,5.713,1.757,8.84v2.256h-8.117h-32.473
	c0.36,2.284,1.068,4.389,2.119,6.313c1.051,1.925,2.39,3.579,4.015,4.961c1.623,1.384,3.441,2.481,5.456,3.293
	c2.015,0.811,4.164,1.217,6.45,1.217c3.849,0,7.245-1.021,10.191-3.067c2.949-2.043,5.113-4.78,6.498-8.209h4.961
	c-0.782,2.286-1.881,4.39-3.292,6.313c-1.413,1.926-3.068,3.579-4.962,4.963c-1.896,1.383-3.985,2.479-6.268,3.292
	c-2.289,0.811-4.664,1.217-7.129,1.217c-3.188,0-6.149-0.586-8.885-1.759c-2.735-1.173-5.113-2.765-7.125-4.78
	c-2.018-2.015-3.61-4.39-4.78-7.127c-1.176-2.734-1.762-5.695-1.762-8.885c0-3.126,0.586-6.073,1.762-8.84
	c1.169-2.764,2.762-5.155,4.78-7.17c2.012-2.015,4.39-3.609,7.125-4.782c2.735-1.172,5.697-1.759,8.885-1.759
	c3.125,0,6.075,0.586,8.84,1.759c2.766,1.173,5.155,2.767,7.174,4.782C333.741,14.98,335.336,17.372,336.508,20.136z
	 M333.758,26.721c-0.363-2.225-1.071-4.314-2.122-6.271c-1.054-1.951-2.39-3.623-4.012-5.003c-1.625-1.384-3.459-2.481-5.504-3.293
	s-4.182-1.217-6.405-1.217c-2.286,0-4.435,0.405-6.45,1.217s-3.833,1.909-5.456,3.293c-1.625,1.381-2.964,3.052-4.015,5.003
	c-1.051,1.957-1.759,4.046-2.119,6.271H333.758z M386.977,20.136c-1.202-2.764-2.843-5.155-4.914-7.17
	c-2.074-2.015-4.465-3.609-7.17-4.782c-2.709-1.172-5.593-1.759-8.662-1.759c-3.19,0-6.148,0.586-8.885,1.759
	c-2.738,1.173-5.113,2.767-7.128,4.782c-2.013,2.015-3.607,4.407-4.777,7.17c-1.176,2.767-1.762,5.713-1.762,8.84v22.551h4.509
	V28.976c0-2.466,0.482-4.795,1.443-6.99c0.965-2.195,2.257-4.104,3.882-5.728c1.622-1.624,3.53-2.916,5.727-3.878
	c2.196-0.961,4.524-1.443,6.991-1.443c2.468,0,4.795,0.482,6.989,1.443c2.196,0.963,4.107,2.255,5.729,3.878
	c1.625,1.624,2.917,3.533,3.878,5.728c0.962,2.195,1.444,4.524,1.444,6.99h4.512C388.784,25.849,388.182,22.902,386.977,20.136z
	 M41.069,10.938l4.033-2.332l-3.769-2.179L30.193,0v6.428H12.629c-1.804,0-3.47,0.313-4.998,0.939C6.09,8.005,4.75,8.87,3.607,9.984
	c-1.137,1.116-2.03,2.407-2.655,3.884C0.313,15.334,0,16.914,0,18.604c0,1.679,0.313,3.295,0.953,4.825
	c0.625,1.528,1.518,2.869,2.655,4.009c1.143,1.153,2.482,2.065,4.024,2.754c1.527,0.689,3.194,1.042,4.998,1.042h20.296
	c2.042,0,3.833,0.701,5.375,2.118c1.527,1.414,2.292,3.256,2.292,5.549c0,2.28-0.765,4.209-2.292,5.774
	c-1.542,1.555-3.333,2.344-5.375,2.344H14.909v-6.378L3.86,47.02L0,49.25l3.947,2.28l10.962,6.327v-6.327h18.017
	c1.679,0,3.259-0.351,4.735-1.039c1.479-0.69,2.768-1.604,3.884-2.758c1.104-1.14,1.979-2.479,2.619-4.008
	c0.625-1.53,0.938-3.146,0.938-4.823c0-1.692-0.313-3.271-0.938-4.737c-0.64-1.477-1.515-2.77-2.619-3.883
	c-1.116-1.115-2.405-1.979-3.884-2.619c-1.476-0.626-3.057-0.939-4.735-0.939H12.629c-2.28,0-4.208-0.789-5.774-2.344
	c-1.569-1.565-2.343-3.494-2.343-5.776c0-2.292,0.774-4.134,2.343-5.549c1.565-1.416,3.494-2.116,5.774-2.116h17.564v6.277
	L41.069,10.938z"/>
<g>
	<path fill="#FFFFFF" d="M79.734,86.552c-3.624,2.539-7.434,4.945-11.43,7.217l-0.439-0.998l2.625-1.422V71.353h1.093v19.316
		c2.478-1.447,5.16-3.211,8.045-5.287L79.734,86.552z M82.078,80.411l-0.958,0.52c-1.608-2.77-3.388-5.285-5.341-7.54l1.039-0.479
		C78.948,75.505,80.702,78.005,82.078,80.411z M91.629,94.21l-0.825,0.758c-1.537-2.059-3.472-4.291-5.809-6.697
		c-1.599,2.326-4.208,4.567-7.832,6.725l-0.814-0.811c4.529-2.576,7.533-5.459,9.013-8.646c1.479-3.187,2.257-7.952,2.337-14.292
		h1.12c-0.169,7.671-1.244,13.036-3.225,16.091C87.709,89.459,89.72,91.75,91.629,94.21z"/>
	<path fill="#FFFFFF" d="M115.929,84.114c-1.394,0.656-2.558,1.16-3.49,1.506v9.27h-1.092v-8.857
		c-1.679,0.604-3.365,1.15-5.062,1.637l-0.279-1.037c2.042-0.56,3.822-1.125,5.341-1.693v-7.046h-2.638
		c-0.381,1.715-0.856,3.309-1.425,4.781l-0.999-0.517c1.182-2.718,1.869-5.702,2.065-8.951l1.093,0.08
		c-0.089,0.995-0.264,2.188-0.52,3.581h2.424v-5.592h1.092v5.592h3.038v1.026h-3.038V84.5c1.26-0.489,2.424-0.981,3.49-1.479V84.114
		z M129.169,75.177c0,2.833-0.053,5.637-0.16,8.412s-0.243,5.021-0.406,6.739c-0.165,1.719-0.328,2.754-0.486,3.104
		c-0.161,0.352-0.39,0.645-0.687,0.879c-0.297,0.236-0.669,0.4-1.113,0.494c-0.444,0.094-1.811,0.139-4.103,0.139l-0.493-1.094
		c0.595,0.037,1.218,0.055,1.867,0.055c1.605,0,2.582-0.094,2.923-0.285c0.341-0.193,0.582-0.498,0.718-0.919
		c0.139-0.423,0.315-2.462,0.526-6.115c0.214-3.655,0.321-7.125,0.321-10.409h-2.025c-0.453,4.041-1.436,7.542-2.95,10.508
		c-1.514,2.967-3.916,5.668-7.2,8.099l-0.838-0.785c5.967-4.157,9.265-10.097,9.896-17.822h-2.371
		c-1.021,5-3.229,9.147-6.621,12.441l-0.828-0.76c3.323-3.154,5.441-7.047,6.355-11.681h-2.451
		c-0.828,1.882-1.866,3.563-3.117,5.049l-0.839-0.68c1.962-2.141,3.472-5.256,4.529-9.35l1.037,0.266
		c-0.31,1.287-0.7,2.526-1.17,3.717H129.169z"/>
	<path fill="#FFFFFF" d="M166.896,83.622c-0.071,2.076-0.221,4.146-0.453,6.201c-0.23,2.057-0.437,3.284-0.62,3.688
		c-0.181,0.406-0.446,0.723-0.792,0.959s-0.887,0.365-1.625,0.387c-0.736,0.023-1.837,0.033-3.303,0.033l-0.412-1.174
		c0.905,0.07,1.789,0.107,2.649,0.107c0.915,0,1.523-0.063,1.827-0.186c0.301-0.125,0.517-0.336,0.644-0.641
		c0.129-0.3,0.297-1.314,0.5-3.043c0.206-1.728,0.361-3.5,0.466-5.32h-3.024c-1.686,4.288-5.243,7.709-10.668,10.256l-0.6-0.893
		c5.116-2.308,8.48-5.43,10.098-9.363h-4.837c-0.888,1.474-2.317,2.901-4.288,4.284c-1.971,1.377-4.09,2.452-6.353,3.215l-0.6-0.919
		c4.574-1.414,7.885-3.605,9.937-6.58h-5.874c-1.483,1.26-2.988,2.223-4.516,2.89l-0.667-0.761c3.118-1.445,5.612-3.465,7.486-6.061
		h-4.077v-8.857h16.785v8.857h-11.455c-0.604,0.941-1.427,1.916-2.466,2.919H166.896z M163.486,75.748v-2.89h-14.6v2.89H163.486z
		 M163.486,79.73v-2.983h-14.6v2.983H163.486z"/>
	<path fill="#FFFFFF" d="M192.314,84.114c-1.394,0.656-2.558,1.16-3.49,1.506v9.27h-1.093v-8.857
		c-1.679,0.604-3.365,1.15-5.062,1.637l-0.281-1.037c2.043-0.56,3.824-1.125,5.343-1.693v-7.046h-2.638
		c-0.381,1.715-0.856,3.309-1.425,4.781l-0.999-0.517c1.182-2.718,1.869-5.702,2.065-8.951l1.092,0.08
		c-0.089,0.995-0.263,2.188-0.52,3.581h2.424v-5.592h1.093v5.592h3.037v1.026h-3.037V84.5c1.26-0.489,2.424-0.981,3.49-1.479V84.114
		z M205.556,75.177c0,2.833-0.054,5.637-0.161,8.412c-0.107,2.774-0.243,5.021-0.406,6.739c-0.165,1.719-0.328,2.754-0.486,3.104
		c-0.161,0.352-0.39,0.645-0.687,0.879c-0.296,0.236-0.669,0.4-1.113,0.494c-0.443,0.094-1.811,0.139-4.103,0.139l-0.493-1.094
		c0.595,0.037,1.218,0.055,1.867,0.055c1.605,0,2.58-0.094,2.923-0.285c0.341-0.193,0.582-0.498,0.718-0.919
		c0.138-0.423,0.314-2.462,0.526-6.115c0.214-3.655,0.321-7.125,0.321-10.409h-2.024c-0.453,4.041-1.436,7.542-2.95,10.508
		c-1.514,2.967-3.916,5.668-7.2,8.099l-0.839-0.785c5.967-4.157,9.266-10.097,9.896-17.822h-2.37c-1.021,5-3.229,9.147-6.621,12.441
		l-0.828-0.76c3.323-3.154,5.441-7.047,6.355-11.681h-2.451c-0.828,1.882-1.867,3.563-3.118,5.049l-0.84-0.68
		c1.964-2.141,3.474-5.256,4.529-9.35l1.039,0.266c-0.31,1.287-0.7,2.526-1.17,3.717H205.556z"/>
	<path fill="#FFFFFF" d="M244.455,93.998l-0.546,0.971c-4.91-1.242-8.694-2.96-11.351-5.154c-2.689,2.142-6.411,3.859-11.16,5.154
		l-0.627-0.971c4.547-1.102,8.206-2.729,10.976-4.888c-1.874-1.704-3.459-3.902-4.756-6.594l1.012-0.466
		c1.164,2.585,2.691,4.71,4.583,6.38c1.946-1.696,3.592-3.822,4.943-6.38l1.064,0.493c-1.519,2.665-3.245,4.854-5.18,6.567
		C235.863,91.098,239.544,92.726,244.455,93.998z M244.187,75.442h-23.138V74.43h11.643c-0.471-1.242-0.941-2.25-1.412-3.024
		l1.066-0.333c0.498,0.816,1.012,1.936,1.545,3.356h10.295V75.442z M229.695,77.599c-1.757,2.292-4.369,4.75-7.832,7.368
		l-0.733-0.879c3.269-2.399,5.813-4.776,7.633-7.141L229.695,77.599z M244.042,84.235l-0.841,0.732
		c-2.343-2.77-4.861-5.191-7.553-7.261l0.788-0.785C239.259,79.115,241.794,81.552,244.042,84.235z"/>
	<path fill="#FFFFFF" d="M281.474,83.622c-0.071,2.076-0.221,4.146-0.453,6.201c-0.229,2.057-0.437,3.284-0.62,3.688
		c-0.181,0.406-0.446,0.723-0.792,0.959s-0.888,0.365-1.626,0.387c-0.735,0.023-1.837,0.033-3.302,0.033l-0.413-1.174
		c0.906,0.07,1.789,0.107,2.649,0.107c0.917,0,1.523-0.063,1.826-0.186c0.301-0.125,0.517-0.336,0.645-0.641
		c0.129-0.3,0.297-1.314,0.5-3.043c0.205-1.728,0.361-3.5,0.468-5.32h-3.024c-1.688,4.288-5.245,7.709-10.67,10.256l-0.6-0.893
		c5.115-2.308,8.48-5.43,10.097-9.363h-4.837c-0.887,1.474-2.317,2.901-4.288,4.284c-1.971,1.377-4.089,2.452-6.353,3.215
		l-0.6-0.919c4.573-1.414,7.885-3.605,9.937-6.58h-5.874c-1.482,1.26-2.988,2.223-4.516,2.89l-0.667-0.761
		c3.118-1.445,5.613-3.465,7.486-6.061h-4.076v-8.857h16.785v8.857h-11.455c-0.604,0.941-1.425,1.916-2.464,2.919H281.474z
		 M278.064,75.748v-2.89h-14.599v2.89H278.064z M278.064,79.73v-2.983h-14.599v2.983H278.064z"/>
	<path fill="#FFFFFF" d="M320.812,85.952H309.57v8.938h-1.092v-8.938h-11.27v-1.039h11.27V73.045h-10.75v-1.04h22.591v1.04H309.57
		v11.868h11.241V85.952z M304.308,82.317l-0.959,0.517c-0.738-2.123-1.944-4.284-3.624-6.486l0.892-0.52
		C302.225,77.933,303.456,80.096,304.308,82.317z M318.495,76.203c-0.801,2.157-2.164,4.342-4.09,6.551l-0.932-0.597
		c1.9-2.105,3.262-4.232,4.09-6.382L318.495,76.203z"/>
	<path fill="#FFFFFF" d="M359.14,81.61l-0.92,0.707c-0.889-1.208-1.709-2.226-2.466-3.051c-6.038,1.224-12.619,1.971-19.738,2.237
		l-0.336-1.093c3.794-2.859,6.648-5.989,8.565-9.39l1.173,0.466c-1.846,3.063-4.555,6.029-8.125,8.897
		c6.615-0.211,12.489-0.861,17.622-1.944c-1.455-1.581-2.983-3.09-4.582-4.529l0.841-0.678
		C354.015,75.699,356.671,78.493,359.14,81.61z M356.355,94.89h-1.094v-1.744h-16.195v1.744h-1.093V84.527h18.382V94.89z
		 M355.261,92.133v-6.567h-16.195v6.567H355.261z"/>
</g>
</svg>
