<?xml version="1.0" encoding="utf-8"?>
<!-- Generator: Adobe Illustrator 26.0.1, SVG Export Plug-In . SVG Version: 6.00 Build 0)  -->
<svg version="1.1" id="圖層_1" xmlns="http://www.w3.org/2000/svg" xmlns:xlink="http://www.w3.org/1999/xlink" x="0px" y="0px"
	 viewBox="0 0 388.8 108.9" style="enable-background:new 0 0 388.8 108.9;" xml:space="preserve">
<style type="text/css">
	.st0{fill:#FFFFFF;}
</style>
<path class="st0" d="M132,10h4.5v22.6c0,3.2-0.6,6.2-1.8,8.9c-1.2,2.7-2.8,5.1-4.9,7.1s-4.5,3.6-7.2,4.8c-2.7,1.2-5.6,1.8-8.7,1.8
	c-2.3,0-4.4-0.3-6.5-0.9c-2-0.6-3.9-1.5-5.7-2.7c-1.7-1.1-3.3-2.5-4.7-4s-2.5-3.2-3.4-5c-0.9,1.8-2.1,3.5-3.5,5
	c-1.4,1.5-3,2.9-4.8,4c-1.8,1.1-3.7,2-5.7,2.7c-2,0.6-4.1,0.9-6.3,0.9c-3.2,0-6.1-0.6-8.9-1.8c-2.7-1.2-5.1-2.8-7.1-4.8
	s-3.6-4.4-4.8-7.1c-1.2-2.7-1.8-5.7-1.8-8.9V10h4.5v22.6c0,2.5,0.5,4.8,1.4,7s2.3,4.1,3.9,5.7c1.6,1.6,3.5,2.9,5.7,3.9
	c2.2,1,4.5,1.4,7,1.4c2.5,0,4.8-0.5,7-1.4c2.2-1,4.1-2.3,5.7-3.9c1.6-1.6,2.9-3.5,3.9-5.7c1-2.2,1.4-4.5,1.4-7V10h4.5v22.6
	c0,2.5,0.5,4.8,1.4,7c1,2.2,2.3,4.1,3.9,5.7c1.6,1.6,3.5,2.9,5.7,3.9c2.2,1,4.5,1.4,7,1.4c2.5,0,4.8-0.5,7-1.4
	c2.2-1,4.1-2.3,5.7-3.9c1.6-1.6,2.9-3.5,3.9-5.7s1.4-4.5,1.4-7L132,10L132,10z M185.3,23.7c1.2,2.8,1.8,5.7,1.8,8.8v22.6h-4.5v-9
	c-2,2.7-4.7,4.9-7.8,6.5c-3.2,1.7-6.6,2.5-10.2,2.5c-3.2,0-6.1-0.6-8.9-1.8c-2.7-1.2-5.1-2.8-7.1-4.8c-2-2-3.6-4.4-4.8-7.1
	c-1.2-2.7-1.8-5.7-1.8-8.9c0-3.1,0.6-6.1,1.8-8.8c1.2-2.8,2.8-5.2,4.8-7.2c2-2,4.4-3.6,7.1-4.8c2.7-1.2,5.7-1.8,8.9-1.8
	c3.1,0,6.1,0.6,8.8,1.8c2.8,1.2,5.2,2.8,7.2,4.8C182.5,18.5,184.1,20.9,185.3,23.7z M182.5,32.5c0-2.5-0.5-4.8-1.4-7
	c-1-2.2-2.3-4.1-3.9-5.7c-1.6-1.6-3.5-2.9-5.7-3.9c-2.2-1-4.5-1.4-7-1.4s-4.8,0.5-7,1.4c-2.2,1-4.1,2.3-5.7,3.9
	c-1.6,1.6-2.9,3.5-3.9,5.7c-1,2.2-1.4,4.5-1.4,7s0.5,4.8,1.4,7c1,2.2,2.3,4.1,3.9,5.7c1.6,1.6,3.5,2.9,5.7,3.9c2.2,1,4.5,1.4,7,1.4
	c2.5,0,4.8-0.5,7-1.4c2.2-1,4.1-2.3,5.7-3.9c1.6-1.6,2.9-3.5,3.9-5.7C182,37.3,182.5,35,182.5,32.5z M235.7,23.7
	c1.2,2.8,1.8,5.7,1.8,8.8c0,3.2-0.6,6.2-1.8,8.9c-1.2,2.7-2.8,5.1-4.9,7.1c-2.1,2-4.5,3.6-7.2,4.8c-2.7,1.2-5.6,1.8-8.7,1.8
	c-3.8,0-7.3-0.8-10.4-2.5c-3.1-1.7-5.6-3.8-7.7-6.5v17.1h-4.5V32.5c0-3.1,0.6-6.1,1.8-8.8c1.2-2.8,2.8-5.2,4.8-7.2
	c2-2,4.4-3.6,7.1-4.8c2.7-1.2,5.7-1.8,8.9-1.8c3.1,0,6,0.6,8.7,1.8c2.7,1.2,5.1,2.8,7.2,4.8C232.9,18.5,234.5,20.9,235.7,23.7z
	 M233,32.5c0-2.5-0.5-4.8-1.4-7c-1-2.2-2.3-4.1-3.9-5.7c-1.6-1.6-3.5-2.9-5.7-3.9c-2.2-1-4.5-1.4-7-1.4s-4.8,0.5-7,1.4
	c-2.2,1-4.1,2.3-5.7,3.9c-1.6,1.6-2.9,3.5-3.9,5.7c-1,2.2-1.4,4.5-1.4,7s0.5,4.8,1.4,7c1,2.2,2.3,4.1,3.9,5.7
	c1.6,1.6,3.5,2.9,5.7,3.9c2.2,1,4.5,1.4,7,1.4s4.8-0.5,7-1.4s4.1-2.3,5.7-3.9c1.6-1.6,2.9-3.5,3.9-5.7S233,35,233,32.5z M286.2,23.7
	c1.2,2.8,1.8,5.7,1.8,8.8c0,3.2-0.6,6.2-1.8,8.9c-1.2,2.7-2.8,5.1-4.9,7.1s-4.5,3.6-7.2,4.8c-2.7,1.2-5.6,1.8-8.7,1.8
	c-3.8,0-7.3-0.8-10.4-2.5c-3.1-1.7-5.6-3.8-7.7-6.5v17.1h-4.5V32.5c0-3.1,0.6-6.1,1.8-8.8c1.2-2.8,2.8-5.2,4.8-7.2s4.4-3.6,7.1-4.8
	c2.7-1.2,5.7-1.8,8.9-1.8c3.1,0,6,0.6,8.7,1.8c2.7,1.2,5.1,2.8,7.2,4.8S285,20.9,286.2,23.7z M283.5,32.5c0-2.5-0.5-4.8-1.4-7
	c-1-2.2-2.3-4.1-3.9-5.7c-1.6-1.6-3.5-2.9-5.7-3.9c-2.2-1-4.5-1.4-7-1.4c-2.5,0-4.8,0.5-7,1.4c-2.2,1-4.1,2.3-5.7,3.9
	c-1.6,1.6-2.9,3.5-3.9,5.7c-1,2.2-1.4,4.5-1.4,7s0.5,4.8,1.4,7c1,2.2,2.3,4.1,3.9,5.7c1.6,1.6,3.5,2.9,5.7,3.9s4.5,1.4,7,1.4
	c2.5,0,4.8-0.5,7-1.4c2.2-1,4.1-2.3,5.7-3.9c1.6-1.6,2.9-3.5,3.9-5.7C283,37.3,283.5,35,283.5,32.5z M336.8,23.7
	c1.2,2.8,1.8,5.7,1.8,8.8v2.3h-8.1H298c0.4,2.3,1.1,4.4,2.1,6.3c1.1,1.9,2.4,3.6,4,5c1.6,1.4,3.4,2.5,5.5,3.3c2,0.8,4.2,1.2,6.5,1.2
	c3.8,0,7.2-1,10.2-3.1c2.9-2,5.1-4.8,6.5-8.2h5c-0.8,2.3-1.9,4.4-3.3,6.3c-1.4,1.9-3.1,3.6-5,5c-1.9,1.4-4,2.5-6.3,3.3
	c-2.3,0.8-4.7,1.2-7.1,1.2c-3.2,0-6.1-0.6-8.9-1.8c-2.7-1.2-5.1-2.8-7.1-4.8c-2-2-3.6-4.4-4.8-7.1c-1.2-2.7-1.8-5.7-1.8-8.9
	c0-3.1,0.6-6.1,1.8-8.8c1.2-2.8,2.8-5.2,4.8-7.2c2-2,4.4-3.6,7.1-4.8c2.7-1.2,5.7-1.8,8.9-1.8c3.1,0,6.1,0.6,8.8,1.8
	c2.8,1.2,5.2,2.8,7.2,4.8C334,18.5,335.6,20.9,336.8,23.7z M334,30.3c-0.4-2.2-1.1-4.3-2.1-6.3c-1.1-2-2.4-3.6-4-5
	c-1.6-1.4-3.5-2.5-5.5-3.3c-2-0.8-4.2-1.2-6.4-1.2c-2.3,0-4.4,0.4-6.5,1.2c-2,0.8-3.8,1.9-5.5,3.3c-1.6,1.4-3,3.1-4,5
	c-1.1,2-1.8,4-2.1,6.3H334z M387.3,23.7c-1.2-2.8-2.8-5.2-4.9-7.2c-2.1-2-4.5-3.6-7.2-4.8c-2.7-1.2-5.6-1.8-8.7-1.8
	c-3.2,0-6.1,0.6-8.9,1.8c-2.7,1.2-5.1,2.8-7.1,4.8c-2,2-3.6,4.4-4.8,7.2c-1.2,2.8-1.8,5.7-1.8,8.8v22.6h4.5V32.5
	c0-2.5,0.5-4.8,1.4-7c1-2.2,2.3-4.1,3.9-5.7c1.6-1.6,3.5-2.9,5.7-3.9c2.2-1,4.5-1.4,7-1.4c2.5,0,4.8,0.5,7,1.4
	c2.2,1,4.1,2.3,5.7,3.9c1.6,1.6,2.9,3.5,3.9,5.7c1,2.2,1.4,4.5,1.4,7h4.5C389.1,29.4,388.5,26.4,387.3,23.7z M41.4,14.5l4-2.3
	L41.6,10L30.5,3.5V10H12.9c-1.8,0-3.5,0.3-5,0.9c-1.5,0.6-2.9,1.5-4,2.6c-1.1,1.1-2,2.4-2.7,3.9c-0.6,1.5-1,3-1,4.7
	c0,1.7,0.3,3.3,1,4.8c0.6,1.5,1.5,2.9,2.7,4c1.1,1.2,2.5,2.1,4,2.8c1.5,0.7,3.2,1,5,1h20.3c2,0,3.8,0.7,5.4,2.1
	c1.5,1.4,2.3,3.3,2.3,5.5c0,2.3-0.8,4.2-2.3,5.8c-1.5,1.6-3.3,2.3-5.4,2.3h-18v-6.4l-11,6.4l-3.9,2.2l3.9,2.3l11,6.3v-6.3h18
	c1.7,0,3.3-0.4,4.7-1c1.5-0.7,2.8-1.6,3.9-2.8c1.1-1.1,2-2.5,2.6-4c0.6-1.5,0.9-3.1,0.9-4.8c0-1.7-0.3-3.3-0.9-4.7
	c-0.6-1.5-1.5-2.8-2.6-3.9c-1.1-1.1-2.4-2-3.9-2.6c-1.5-0.6-3.1-0.9-4.7-0.9H12.9c-2.3,0-4.2-0.8-5.8-2.3c-1.6-1.6-2.3-3.5-2.3-5.8
	c0-2.3,0.8-4.1,2.3-5.5c1.6-1.4,3.5-2.1,5.8-2.1h17.6v6.3L41.4,14.5z"/>
<g>
	<path class="st0" d="M60.6,90.1c-3.6,2.5-7.4,4.9-11.4,7.2l-0.4-1l2.6-1.4v-20h1.1v19.3c2.5-1.4,5.2-3.2,8-5.3L60.6,90.1z M63,84
		l-1,0.5c-1.6-2.8-3.4-5.3-5.3-7.5l1-0.5C59.8,79.1,61.6,81.6,63,84z M72.5,97.8l-0.8,0.8c-1.5-2.1-3.5-4.3-5.8-6.7
		c-1.6,2.3-4.2,4.6-7.8,6.7l-0.8-0.8c4.5-2.6,7.5-5.5,9-8.6c1.5-3.2,2.3-8,2.3-14.3h1.1c-0.2,7.7-1.2,13-3.2,16.1
		C68.6,93,70.6,95.3,72.5,97.8z"/>
	<path class="st0" d="M96.8,87.7c-1.4,0.7-2.6,1.2-3.5,1.5v9.3h-1.1v-8.9c-1.7,0.6-3.4,1.2-5.1,1.6l-0.3-1c2-0.6,3.8-1.1,5.3-1.7v-7
		h-2.6c-0.4,1.7-0.9,3.3-1.4,4.8l-1-0.5c1.2-2.7,1.9-5.7,2.1-9l1.1,0.1c-0.1,1-0.3,2.2-0.5,3.6h2.4v-5.6h1.1v5.6h3v1h-3V88
		c1.3-0.5,2.4-1,3.5-1.5L96.8,87.7L96.8,87.7z M110.1,78.7c0,2.8-0.1,5.6-0.2,8.4s-0.2,5-0.4,6.7c-0.2,1.7-0.3,2.8-0.5,3.1
		c-0.2,0.4-0.4,0.6-0.7,0.9c-0.3,0.2-0.7,0.4-1.1,0.5s-1.8,0.1-4.1,0.1l-0.5-1.1c0.6,0,1.2,0.1,1.9,0.1c1.6,0,2.6-0.1,2.9-0.3
		c0.3-0.2,0.6-0.5,0.7-0.9c0.1-0.4,0.3-2.5,0.5-6.1c0.2-3.7,0.3-7.1,0.3-10.4h-2c-0.5,4-1.4,7.5-2.9,10.5c-1.5,3-3.9,5.7-7.2,8.1
		L96,97.5c6-4.2,9.3-10.1,9.9-17.8h-2.4c-1,5-3.2,9.1-6.6,12.4L96,91.4c3.3-3.2,5.4-7,6.4-11.7h-2.5c-0.8,1.9-1.9,3.6-3.1,5L96,84.1
		c2-2.1,3.5-5.3,4.5-9.3l1,0.3c-0.3,1.3-0.7,2.5-1.2,3.7L110.1,78.7L110.1,78.7z"/>
	<path class="st0" d="M147.8,87.2c-0.1,2.1-0.2,4.1-0.5,6.2c-0.2,2.1-0.4,3.3-0.6,3.7c-0.2,0.4-0.4,0.7-0.8,1s-0.9,0.4-1.6,0.4
		c-0.7,0-1.8,0-3.3,0l-0.4-1.2c0.9,0.1,1.8,0.1,2.6,0.1c0.9,0,1.5-0.1,1.8-0.2c0.3-0.1,0.5-0.3,0.6-0.6c0.1-0.3,0.3-1.3,0.5-3
		c0.2-1.7,0.4-3.5,0.5-5.3h-3c-1.7,4.3-5.2,7.7-10.7,10.3l-0.6-0.9c5.1-2.3,8.5-5.4,10.1-9.4h-4.8c-0.9,1.5-2.3,2.9-4.3,4.3
		c-2,1.4-4.1,2.5-6.4,3.2l-0.6-0.9c4.6-1.4,7.9-3.6,9.9-6.6h-5.9c-1.5,1.3-3,2.2-4.5,2.9l-0.7-0.8c3.1-1.4,5.6-3.5,7.5-6.1h-4.1
		v-8.9h16.8v8.9H134c-0.6,0.9-1.4,1.9-2.5,2.9L147.8,87.2L147.8,87.2z M144.4,79.3v-2.9h-14.6v2.9H144.4z M144.4,83.3v-3h-14.6v3
		H144.4z"/>
	<path class="st0" d="M173.2,87.7c-1.4,0.7-2.6,1.2-3.5,1.5v9.3h-1.1v-8.9c-1.7,0.6-3.4,1.2-5.1,1.6l-0.3-1c2-0.6,3.8-1.1,5.3-1.7
		v-7H166c-0.4,1.7-0.9,3.3-1.4,4.8l-1-0.5c1.2-2.7,1.9-5.7,2.1-9l1.1,0.1c-0.1,1-0.3,2.2-0.5,3.6h2.4v-5.6h1.1v5.6h3v1h-3V88
		c1.3-0.5,2.4-1,3.5-1.5L173.2,87.7L173.2,87.7z M186.4,78.7c0,2.8-0.1,5.6-0.2,8.4c-0.1,2.8-0.2,5-0.4,6.7
		c-0.2,1.7-0.3,2.8-0.5,3.1c-0.2,0.4-0.4,0.6-0.7,0.9c-0.3,0.2-0.7,0.4-1.1,0.5c-0.4,0.1-1.8,0.1-4.1,0.1l-0.5-1.1
		c0.6,0,1.2,0.1,1.9,0.1c1.6,0,2.6-0.1,2.9-0.3c0.3-0.2,0.6-0.5,0.7-0.9c0.1-0.4,0.3-2.5,0.5-6.1c0.2-3.7,0.3-7.1,0.3-10.4h-2
		c-0.5,4-1.4,7.5-2.9,10.5c-1.5,3-3.9,5.7-7.2,8.1l-0.8-0.8c6-4.2,9.3-10.1,9.9-17.8h-2.4c-1,5-3.2,9.1-6.6,12.4l-0.8-0.8
		c3.3-3.2,5.4-7,6.4-11.7h-2.5c-0.8,1.9-1.9,3.6-3.1,5l-0.8-0.7c2-2.1,3.5-5.3,4.5-9.3l1,0.3c-0.3,1.3-0.7,2.5-1.2,3.7L186.4,78.7
		L186.4,78.7z"/>
	<path class="st0" d="M225.3,97.5l-0.5,1c-4.9-1.2-8.7-3-11.4-5.2c-2.7,2.1-6.4,3.9-11.2,5.2l-0.6-1c4.5-1.1,8.2-2.7,11-4.9
		c-1.9-1.7-3.5-3.9-4.8-6.6l1-0.5c1.2,2.6,2.7,4.7,4.6,6.4c1.9-1.7,3.6-3.8,4.9-6.4l1.1,0.5c-1.5,2.7-3.2,4.9-5.2,6.6
		C216.8,94.6,220.4,96.3,225.3,97.5z M225.1,79h-23.1v-1h11.6c-0.5-1.2-0.9-2.2-1.4-3l1.1-0.3c0.5,0.8,1,1.9,1.5,3.4h10.3L225.1,79
		L225.1,79z M210.6,81.1c-1.8,2.3-4.4,4.8-7.8,7.4l-0.7-0.9c3.3-2.4,5.8-4.8,7.6-7.1L210.6,81.1z M224.9,87.8l-0.8,0.7
		c-2.3-2.8-4.9-5.2-7.6-7.3l0.8-0.8C220.1,82.7,222.7,85.1,224.9,87.8z"/>
	<path class="st0" d="M262.4,87.2c-0.1,2.1-0.2,4.1-0.5,6.2c-0.2,2.1-0.4,3.3-0.6,3.7c-0.2,0.4-0.4,0.7-0.8,1s-0.9,0.4-1.6,0.4
		c-0.7,0-1.8,0-3.3,0l-0.4-1.2c0.9,0.1,1.8,0.1,2.6,0.1c0.9,0,1.5-0.1,1.8-0.2c0.3-0.1,0.5-0.3,0.6-0.6c0.1-0.3,0.3-1.3,0.5-3
		c0.2-1.7,0.4-3.5,0.5-5.3h-3c-1.7,4.3-5.2,7.7-10.7,10.3l-0.6-0.9c5.1-2.3,8.5-5.4,10.1-9.4h-4.8c-0.9,1.5-2.3,2.9-4.3,4.3
		c-2,1.4-4.1,2.5-6.4,3.2l-0.6-0.9c4.6-1.4,7.9-3.6,9.9-6.6H245c-1.5,1.3-3,2.2-4.5,2.9l-0.7-0.8c3.1-1.4,5.6-3.5,7.5-6.1h-4.1v-8.9
		H260v8.9h-11.5c-0.6,0.9-1.4,1.9-2.5,2.9L262.4,87.2L262.4,87.2z M259,79.3v-2.9h-14.6v2.9H259z M259,83.3v-3h-14.6v3H259z"/>
	<path class="st0" d="M301.7,89.5h-11.2v8.9h-1.1v-8.9h-11.3v-1h11.3V76.6h-10.8v-1h22.6v1h-10.7v11.9h11.2L301.7,89.5L301.7,89.5z
		 M285.2,85.9l-1,0.5c-0.7-2.1-1.9-4.3-3.6-6.5l0.9-0.5C283.1,81.5,284.3,83.6,285.2,85.9z M299.4,79.8c-0.8,2.2-2.2,4.3-4.1,6.6
		l-0.9-0.6c1.9-2.1,3.3-4.2,4.1-6.4L299.4,79.8z"/>
	<path class="st0" d="M340,85.2l-0.9,0.7c-0.9-1.2-1.7-2.2-2.5-3.1c-6,1.2-12.6,2-19.7,2.2l-0.3-1.1c3.8-2.9,6.6-6,8.6-9.4l1.2,0.5
		c-1.8,3.1-4.6,6-8.1,8.9c6.6-0.2,12.5-0.9,17.6-1.9c-1.5-1.6-3-3.1-4.6-4.5l0.8-0.7C334.9,79.2,337.6,82,340,85.2z M337.2,98.4
		h-1.1v-1.7H320v1.7h-1.1V88.1h18.4V98.4z M336.2,95.7v-6.6H320v6.6H336.2z"/>
</g>
</svg>
